<svg width="40" height="40" viewBox="0 0 40 40" fill="none" xmlns="http://www.w3.org/2000/svg">
<path d="M33.3333 2.85718V10.4762M37.1429 6.6667H29.5238M26.6667 18.0953L13.3333 10.4762M21.8895 7.7467L31.4133 13.1886C31.9967 13.5218 32.4815 14.0034 32.8187 14.5844C33.1559 15.1655 33.3334 15.8254 33.3333 16.4972V25.4077C33.3334 26.0795 33.1559 26.7393 32.8187 27.3204C32.4815 27.9015 31.9967 28.383 31.4133 28.7162L21.8895 34.1581C21.314 34.4869 20.6628 34.6598 20 34.6598C19.3372 34.6598 18.686 34.4869 18.1105 34.1581L8.58666 28.7162C8.00332 28.383 7.51847 27.9015 7.18128 27.3204C6.84408 26.7393 6.66654 26.0795 6.66666 25.4077V16.4972C6.66654 15.8254 6.84408 15.1655 7.18128 14.5844C7.51847 14.0034 8.00332 13.5218 8.58666 13.1886L18.1105 7.7467C18.686 7.41798 19.3372 7.24507 20 7.24507C20.6628 7.24507 21.314 7.41798 21.8895 7.7467Z" stroke="#0C0C0C" stroke-width="2" stroke-linecap="round" stroke-linejoin="round"/>
<path d="M7.61905 15.2382L18.1943 20.9334C18.7493 21.2322 19.3697 21.3885 20 21.3885C20.6303 21.3885 21.2507 21.2322 21.8057 20.9334L32.381 15.2382M20 21.9048V34.2858" stroke="#0C0C0C" stroke-width="2" stroke-linecap="round" stroke-linejoin="round"/>
</svg>
