<svg width="20" height="20" viewBox="0 0 20 20" fill="none" xmlns="http://www.w3.org/2000/svg">
<path fill-rule="evenodd" clip-rule="evenodd" d="M17.8791 4.51339C17.9583 4.63357 17.9936 4.77738 17.979 4.92055C17.9644 5.06372 17.9009 5.19748 17.7991 5.29923L10.1383 12.9592C10.0599 13.0375 9.96215 13.0936 9.85497 13.1217L6.66414 13.9551C6.55866 13.9826 6.44783 13.982 6.34263 13.9535C6.23744 13.9249 6.14154 13.8693 6.06447 13.7922C5.98739 13.7152 5.93181 13.6193 5.90325 13.5141C5.87468 13.4089 5.87413 13.298 5.90164 13.1926L6.73497 10.0026C6.7593 9.9068 6.80519 9.81787 6.86914 9.74256L14.5583 2.05839C14.6755 1.94135 14.8343 1.87561 15 1.87561C15.1656 1.87561 15.3245 1.94135 15.4416 2.05839L17.7991 4.41506C17.829 4.44507 17.8558 4.47801 17.8791 4.51339ZM16.4733 4.85673L15 3.38423L7.90164 10.4826L7.38081 12.4767L9.37497 11.9559L16.4733 4.85673Z" fill="#C9C9C9"/>
<path d="M16.3675 14.3C16.5953 12.3533 16.668 10.3915 16.585 8.43332C16.5832 8.38719 16.5909 8.34117 16.6077 8.29816C16.6245 8.25514 16.6499 8.21605 16.6825 8.18332L17.5025 7.36332C17.5249 7.34079 17.5534 7.3252 17.5844 7.31844C17.6155 7.31168 17.6478 7.31403 17.6775 7.32521C17.7073 7.33638 17.7332 7.35591 17.7521 7.38145C17.771 7.40698 17.7821 7.43744 17.7842 7.46915C17.9385 9.79518 17.8799 12.1305 17.6092 14.4458C17.4125 16.1308 16.0592 17.4517 14.3817 17.6392C11.4695 17.9617 8.53055 17.9617 5.61834 17.6392C3.94167 17.4517 2.58751 16.1308 2.39084 14.4458C2.04534 11.492 2.04534 8.50797 2.39084 5.55415C2.58751 3.86915 3.94084 2.54832 5.61834 2.36082C7.82865 2.11572 10.0556 2.05635 12.2758 2.18332C12.3076 2.1856 12.3381 2.19694 12.3636 2.216C12.3891 2.23505 12.4087 2.26102 12.4199 2.29084C12.4311 2.32065 12.4336 2.35306 12.4269 2.38422C12.4203 2.41538 12.4049 2.44398 12.3825 2.46665L11.555 3.29332C11.5226 3.32561 11.4839 3.35092 11.4413 3.36769C11.3988 3.38446 11.3532 3.39233 11.3075 3.39082C9.4548 3.32784 7.59997 3.39886 5.75751 3.60332C5.21912 3.66291 4.71655 3.90226 4.33097 4.2827C3.94539 4.66314 3.69932 5.16245 3.63251 5.69999C3.29838 8.55692 3.29838 11.4431 3.63251 14.3C3.69932 14.8375 3.94539 15.3368 4.33097 15.7173C4.71655 16.0977 5.21912 16.3371 5.75751 16.3967C8.55334 16.7092 11.4467 16.7092 14.2433 16.3967C14.7817 16.3371 15.2843 16.0977 15.6699 15.7173C16.0555 15.3368 16.3007 14.8375 16.3675 14.3Z" fill="#C9C9C9"/>
</svg>
