<svg width="40" height="40" viewBox="0 0 40 40" fill="none" xmlns="http://www.w3.org/2000/svg">
<path d="M30 21.6633H21.6667V29.9967C21.6667 30.4387 21.4911 30.8626 21.1786 31.1752C20.866 31.4877 20.4421 31.6633 20 31.6633C19.558 31.6633 19.1341 31.4877 18.8215 31.1752C18.509 30.8626 18.3334 30.4387 18.3334 29.9967V21.6633H10C9.55801 21.6633 9.13409 21.4877 8.82153 21.1752C8.50897 20.8626 8.33337 20.4387 8.33337 19.9967C8.33337 19.5546 8.50897 19.1307 8.82153 18.8181C9.13409 18.5056 9.55801 18.33 10 18.33H18.3334V9.99665C18.3334 9.55463 18.509 9.1307 18.8215 8.81814C19.1341 8.50558 19.558 8.32999 20 8.32999C20.4421 8.32999 20.866 8.50558 21.1786 8.81814C21.4911 9.1307 21.6667 9.55463 21.6667 9.99665V18.33H30C30.4421 18.33 30.866 18.5056 31.1786 18.8181C31.4911 19.1307 31.6667 19.5546 31.6667 19.9967C31.6667 20.4387 31.4911 20.8626 31.1786 21.1752C30.866 21.4877 30.4421 21.6633 30 21.6633Z" fill="#FBFBFB"/>
</svg>
