<svg width="50" height="30" viewBox="0 0 50 30" fill="none" xmlns="http://www.w3.org/2000/svg">
<path d="M17.5014 17.0014H16.7114L16.4314 16.7314C17.0564 16.0054 17.5131 15.1502 17.769 14.2271C18.0248 13.3039 18.0735 12.3356 17.9114 11.3914C17.4414 8.61144 15.1214 6.39144 12.3214 6.05144C11.3371 5.92691 10.3372 6.02921 9.39846 6.35053C8.4597 6.67185 7.60688 7.20366 6.90527 7.90527C6.20366 8.60688 5.67185 9.4597 5.35053 10.3985C5.02921 11.3372 4.92691 12.3371 5.05144 13.3214C5.39144 16.1214 7.61144 18.4414 10.3914 18.9114C11.3356 19.0735 12.3039 19.0248 13.2271 18.769C14.1502 18.5131 15.0054 18.0564 15.7314 17.4314L16.0014 17.7114V18.5014L20.2514 22.7514C20.6614 23.1614 21.3314 23.1614 21.7414 22.7514C22.1514 22.3414 22.1514 21.6714 21.7414 21.2614L17.5014 17.0014ZM11.5014 17.0014C9.01144 17.0014 7.00144 14.9914 7.00144 12.5014C7.00144 10.0114 9.01144 8.00144 11.5014 8.00144C13.9914 8.00144 16.0014 10.0114 16.0014 12.5014C16.0014 14.9914 13.9914 17.0014 11.5014 17.0014Z" fill="black"/>
</svg>
