<svg width="30" height="30" viewBox="0 0 30 30" fill="none" xmlns="http://www.w3.org/2000/svg">
<path d="M18.75 24.85C18.8 25.225 18.675 25.625 18.3875 25.8875C18.2719 26.0034 18.1345 26.0953 17.9833 26.158C17.8321 26.2208 17.67 26.2531 17.5062 26.2531C17.3425 26.2531 17.1804 26.2208 17.0292 26.158C16.878 26.0953 16.7406 26.0034 16.625 25.8875L11.6125 20.875C11.4762 20.7417 11.3725 20.5787 11.3096 20.3987C11.2467 20.2188 11.2263 20.0267 11.25 19.8375V13.4375L5.2625 5.775C5.05951 5.51441 4.96792 5.18407 5.00773 4.85616C5.04755 4.52825 5.21554 4.22943 5.475 4.025C5.7125 3.85 5.975 3.75 6.25 3.75H23.75C24.025 3.75 24.2875 3.85 24.525 4.025C24.7845 4.22943 24.9524 4.52825 24.9923 4.85616C25.0321 5.18407 24.9405 5.51441 24.7375 5.775L18.75 13.4375V24.85ZM8.8 6.25L13.75 12.575V19.475L16.25 21.975V12.5625L21.2 6.25H8.8Z" fill="black"/>
</svg>
