<svg width="30" height="30" viewBox="0 0 30 30" fill="none" xmlns="http://www.w3.org/2000/svg">
<path fill-rule="evenodd" clip-rule="evenodd" d="M26.8187 6.77C26.9375 6.95026 26.9904 7.16598 26.9686 7.38073C26.9467 7.59549 26.8514 7.79612 26.6987 7.94875L15.2075 19.4387C15.0899 19.5562 14.9433 19.6404 14.7825 19.6825L9.99624 20.9325C9.83803 20.9738 9.67177 20.9729 9.51398 20.9301C9.35619 20.8872 9.21235 20.8039 9.09673 20.6883C8.98112 20.5726 8.89775 20.4288 8.8549 20.271C8.81206 20.1132 8.81123 19.947 8.85249 19.7887L10.1025 15.0037C10.139 14.8601 10.2078 14.7267 10.3037 14.6137L21.8375 3.0875C22.0133 2.91194 22.2516 2.81332 22.5 2.81332C22.7484 2.81332 22.9867 2.91194 23.1625 3.0875L26.6987 6.6225C26.7436 6.66751 26.7838 6.71692 26.8187 6.77ZM24.71 7.285L22.5 5.07625L11.8525 15.7237L11.0712 18.715L14.0625 17.9337L24.71 7.285Z" fill="#C9C9C9"/>
<path d="M24.5512 21.45C24.8929 18.5299 25.0019 15.5873 24.8774 12.65C24.8747 12.5808 24.8863 12.5118 24.9115 12.4473C24.9367 12.3827 24.9748 12.3241 25.0237 12.275L26.2537 11.045C26.2873 11.0112 26.33 10.9878 26.3765 10.9777C26.4231 10.9675 26.4716 10.9711 26.5163 10.9878C26.5609 11.0046 26.5997 11.0339 26.6281 11.0722C26.6565 11.1105 26.6732 11.1562 26.6762 11.2037C26.9077 14.6928 26.8198 18.1957 26.4137 21.6687C26.1187 24.1962 24.0887 26.1775 21.5724 26.4587C17.2041 26.9425 12.7958 26.9425 8.42745 26.4587C5.91245 26.1775 3.8812 24.1962 3.5862 21.6687C3.06795 17.238 3.06795 12.762 3.5862 8.33125C3.8812 5.80375 5.9112 3.8225 8.42745 3.54125C11.7429 3.1736 15.0834 3.08454 18.4137 3.275C18.4614 3.27842 18.507 3.29543 18.5453 3.32401C18.5836 3.35259 18.6129 3.39155 18.6298 3.43627C18.6466 3.48099 18.6503 3.5296 18.6403 3.57634C18.6304 3.62308 18.6073 3.66599 18.5737 3.7L17.3324 4.94C17.2838 4.98843 17.2258 5.0264 17.162 5.05155C17.0981 5.0767 17.0298 5.08851 16.9612 5.08625C14.1821 4.99178 11.3999 5.0983 8.6362 5.405C7.82862 5.49438 7.07476 5.8534 6.49639 6.42406C5.91802 6.99472 5.54891 7.74369 5.4487 8.55C4.94751 12.8354 4.94751 17.1646 5.4487 21.45C5.54891 22.2563 5.91802 23.0053 6.49639 23.5759C7.07476 24.1466 7.82862 24.5056 8.6362 24.595C12.8299 25.0637 17.1699 25.0637 21.3649 24.595C22.1725 24.5056 22.9264 24.1466 23.5048 23.5759C24.0831 23.0053 24.451 22.2563 24.5512 21.45Z" fill="#C9C9C9"/>
</svg>
