<svg width="147" height="147" viewBox="0 0 147 147" fill="none" xmlns="http://www.w3.org/2000/svg">
<path d="M30.625 30.625H110.25C115.123 30.625 119.797 32.5609 123.243 36.0069C126.689 39.4529 128.625 44.1266 128.625 49V104.125C128.625 108.998 126.689 113.672 123.243 117.118C119.797 120.564 115.123 122.5 110.25 122.5H30.625C25.7516 122.5 21.0779 120.564 17.6319 117.118C14.1859 113.672 12.25 108.998 12.25 104.125V49C12.25 44.1266 14.1859 39.4529 17.6319 36.0069C21.0779 32.5609 25.7516 30.625 30.625 30.625ZM30.625 36.75C27.5625 36.75 24.8675 37.7912 22.785 39.6287L70.4375 70.4375L118.09 39.6287C116.008 37.7912 113.312 36.75 110.25 36.75H30.625ZM70.4375 77.8488L19.1713 44.59C18.6813 45.9375 18.375 47.4688 18.375 49V104.125C18.375 107.374 19.6656 110.49 21.9629 112.787C24.2603 115.084 27.3761 116.375 30.625 116.375H110.25C113.499 116.375 116.615 115.084 118.912 112.787C121.209 110.49 122.5 107.374 122.5 104.125V49C122.5 47.4688 122.194 45.9375 121.704 44.59L70.4375 77.8488Z" fill="#CE3838"/>
</svg>
