<svg width="40" height="40" viewBox="0 0 40 40" fill="none" xmlns="http://www.w3.org/2000/svg">
<rect width="40" height="40" fill="#FBFBFB"/>
<path d="M32.1343 9.63127L9.63425 32.1313C9.3997 32.3658 9.08158 32.4976 8.74988 32.4976C8.41817 32.4976 8.10005 32.3658 7.8655 32.1313C7.63095 31.8967 7.49918 31.5786 7.49918 31.2469C7.49918 30.9152 7.63095 30.5971 7.8655 30.3625L30.3655 7.86252C30.5998 7.62797 30.9178 7.49612 31.2493 7.49598C31.5809 7.49583 31.8989 7.6274 32.1335 7.86174C32.368 8.09609 32.4999 8.41401 32.5 8.74557C32.5002 9.07712 32.3686 9.39516 32.1343 9.62971V9.63127ZM7.89675 15.85C6.8419 14.795 6.24937 13.3641 6.24951 11.8721C6.24966 10.3802 6.84247 8.94941 7.89753 7.89456C8.9526 6.8397 10.3835 6.24717 11.8754 6.24731C13.3674 6.24746 14.7981 6.84027 15.853 7.89534C16.9079 8.9504 17.5004 10.3813 17.5002 11.8732C17.5001 13.3652 16.9073 14.7959 15.8522 15.8508C14.7972 16.9057 13.3663 17.4982 11.8743 17.498C10.3824 17.4979 8.95161 16.9051 7.89675 15.85ZM8.74988 11.875C8.75028 12.3888 8.87738 12.8946 9.11992 13.3476C9.36245 13.8006 9.71294 14.1868 10.1404 14.472C10.5678 14.7572 11.0589 14.9326 11.5703 14.9827C12.0817 15.0328 12.5975 14.956 13.0721 14.7591C13.5467 14.5623 13.9655 14.2514 14.2913 13.8541C14.6171 13.4568 14.8399 12.9853 14.94 12.4813C15.0401 11.9773 15.0144 11.4564 14.8651 10.9647C14.7158 10.4731 14.4476 10.0258 14.0843 9.66252C13.647 9.22543 13.09 8.92785 12.4836 8.80742C11.8772 8.687 11.2487 8.74915 10.6776 8.986C10.1066 9.22286 9.6186 9.62378 9.27544 10.138C8.93229 10.6523 8.74939 11.2568 8.74988 11.875ZM33.7499 28.125C33.7496 29.4264 33.2981 30.6874 32.4723 31.6932C31.6465 32.6989 30.4975 33.3873 29.2211 33.6409C27.9447 33.8945 26.6198 33.6977 25.4723 33.084C24.3247 32.4703 23.4254 31.4777 22.9276 30.2753C22.4299 29.0729 22.3644 27.7351 22.7424 26.4899C23.1204 25.2446 23.9185 24.1689 25.0006 23.4461C26.0828 22.7233 27.3821 22.3981 28.6772 22.5259C29.9723 22.6537 31.183 23.2265 32.103 24.1469C32.627 24.6681 33.0423 25.2881 33.325 25.971C33.6077 26.6538 33.7521 27.386 33.7499 28.125ZM31.2499 28.125C31.25 27.402 30.9995 26.7014 30.5409 26.1424C30.0824 25.5834 29.4442 25.2007 28.7351 25.0595C28.0261 24.9183 27.29 25.0274 26.6523 25.3681C26.0146 25.7088 25.5148 26.26 25.238 26.9279C24.9612 27.5959 24.9245 28.3391 25.1343 29.031C25.344 29.7229 25.7872 30.3206 26.3883 30.7224C26.9894 31.1242 27.7112 31.3051 28.4307 31.2344C29.1502 31.1636 29.8229 30.8456 30.3343 30.3344C30.6254 30.045 30.8562 29.7007 31.0133 29.3214C31.1705 28.9422 31.2509 28.5355 31.2499 28.125Z" fill="black"/>
</svg>
