<svg width="24" height="24" viewBox="0 0 24 24" fill="none" xmlns="http://www.w3.org/2000/svg">
<path d="M7.5 11C6.53333 11 5.70833 10.6583 5.025 9.975C4.34167 9.29167 4 8.46667 4 7.5C4 6.53333 4.34167 5.70833 5.025 5.025C5.70833 4.34167 6.53333 4 7.5 4C8.46667 4 9.29167 4.34167 9.975 5.025C10.6583 5.70833 11 6.53333 11 7.5C11 8.46667 10.6583 9.29167 9.975 9.975C9.29167 10.6583 8.46667 11 7.5 11ZM7.5 9C7.91667 9 8.271 8.85433 8.563 8.563C8.855 8.27167 9.00067 7.91733 9 7.5C9 7.08333 8.85433 6.72933 8.563 6.438C8.27167 6.14667 7.91733 6.00067 7.5 6C7.08333 6 6.72933 6.146 6.438 6.438C6.14667 6.73 6.00067 7.084 6 7.5C6 7.91667 6.146 8.271 6.438 8.563C6.73 8.855 7.084 9.00067 7.5 9ZM16.5 20C15.5333 20 14.7083 19.6583 14.025 18.975C13.3417 18.2917 13 17.4667 13 16.5C13 15.5333 13.3417 14.7083 14.025 14.025C14.7083 13.3417 15.5333 13 16.5 13C17.4667 13 18.2917 13.3417 18.975 14.025C19.6583 14.7083 20 15.5333 20 16.5C20 17.4667 19.6583 18.2917 18.975 18.975C18.2917 19.6583 17.4667 20 16.5 20ZM16.5 18C16.9167 18 17.271 17.8543 17.563 17.563C17.855 17.2717 18.0007 16.9173 18 16.5C18 16.0833 17.8543 15.7293 17.563 15.438C17.2717 15.1467 16.9173 15.0007 16.5 15C16.0833 15 15.7293 15.146 15.438 15.438C15.1467 15.73 15.0007 16.084 15 16.5C15 16.9167 15.146 17.271 15.438 17.563C15.73 17.855 16.084 18.0007 16.5 18ZM5.4 20L4 18.6L18.6 4L20 5.4L5.4 20Z" fill="black"/>
</svg>
