<svg width="40" height="40" viewBox="0 0 40 40" fill="none" xmlns="http://www.w3.org/2000/svg">
<path d="M24.9967 11.6667C24.9767 8.04171 24.815 6.07837 23.535 4.79837C22.07 3.33337 19.7133 3.33337 15 3.33337H13.3333C8.61834 3.33337 6.26167 3.33337 4.79667 4.79837C3.33334 6.26171 3.33334 8.62004 3.33334 13.3334V26.6667C3.33334 31.38 3.33334 33.7384 4.79667 35.2017C6.26334 36.6667 8.61834 36.6667 13.3333 36.6667H15C19.7133 36.6667 22.07 36.6667 23.535 35.2017C24.815 33.9217 24.9767 31.9584 24.9967 28.3334" stroke="#0C0C0C" stroke-width="2" stroke-linecap="round"/>
<path d="M15 20H36.6667M36.6667 20L30.8333 15M36.6667 20L30.8333 25" stroke="#0C0C0C" stroke-width="2" stroke-linecap="round" stroke-linejoin="round"/>
</svg>
